<?xml version="1.0" encoding="iso-8859-1"?>
<!-- Generator: Adobe Illustrator 19.0.0, SVG Export Plug-In . SVG Version: 6.00 Build 0)  -->
<svg version="1.1" id="Capa_1" xmlns="http://www.w3.org/2000/svg" xmlns:xlink="http://www.w3.org/1999/xlink" x="0px" y="0px"
	 viewBox="0 0 512 512" style="enable-background:new 0 0 512 512;" xml:space="preserve">
<path style="fill:#FDDC42;" d="M443.734,315.733c0,103.68-84.053,187.733-187.733,187.733S68.268,419.413,68.268,315.733
	c1.451-40.013,9.079-79.565,22.613-117.248c3.157-9.301,6.656-18.688,10.411-27.989c1.707-4.352,3.499-8.619,5.376-12.885
	c3.328-7.68,6.912-15.36,10.667-22.869c7.023-14.234,14.857-28.058,23.467-41.387c2.133-3.328,4.267-6.485,6.485-9.643
	c1.109-1.621,2.219-3.157,3.328-4.693h0.171c5.99-8.439,12.484-16.503,19.456-24.149c5.658-6.178,11.665-12.015,18.005-17.493
	c18.441-17.468,42.556-27.708,67.925-28.843c7.987-0.009,15.932,1.203,23.552,3.584c24.354,8.414,45.978,23.279,62.549,43.008
	c7.168,7.868,13.867,16.162,20.053,24.832c0.085,0.085,0.085,0.085,0.085,0.171c0.085,0.256,0.256,0.512,0.341,0.768
	c0.853,1.195,1.621,2.304,2.475,3.499c10.965,15.957,20.745,32.7,29.269,50.091c5.888,11.776,11.29,23.782,16.213,36.011
	c3.755,9.301,7.253,18.603,10.411,27.989C434.655,236.169,442.284,275.721,443.734,315.733z"/>
<path style="fill:#FFEB49;" d="M409.942,298.667c-0.06,103.74-84.207,187.793-187.955,187.733
	c-22.878-0.017-45.568-4.207-66.935-12.373c-54.093-34.458-86.827-94.157-86.784-158.293c1.451-40.013,9.079-79.565,22.613-117.248
	c3.157-9.301,6.656-18.688,10.411-27.989c1.707-4.352,3.499-8.619,5.376-12.885c3.328-7.68,6.912-15.36,10.667-22.869
	c7.023-14.234,14.857-28.058,23.467-41.387c2.133-3.328,4.267-6.485,6.485-9.643c1.109-1.621,2.219-3.157,3.328-4.693h0.171
	c5.99-8.439,12.484-16.503,19.456-24.149c5.658-6.178,11.665-12.015,18.005-17.493c18.441-17.468,42.556-27.708,67.925-28.843
	c7.987-0.009,15.932,1.203,23.552,3.584c10.496,7.586,20.13,16.282,28.757,25.941c7.168,7.868,13.867,16.162,20.053,24.832
	c0.085,0.085,0.085,0.085,0.085,0.171c0.085,0.256,0.256,0.512,0.341,0.768c0.853,1.195,1.621,2.304,2.475,3.499
	c10.965,15.957,20.745,32.7,29.269,50.091c5.888,11.776,11.29,23.782,16.213,36.011c3.755,9.301,7.253,18.603,10.411,27.989
	C400.863,219.102,408.492,258.654,409.942,298.667z"/>
<path style="fill:#1566C0;" d="M425.302,156.075v-0.085l-7.509-33.877C403.03,55.731,344.142,8.516,276.14,8.533h-40.277
	C167.86,8.516,108.972,55.731,94.209,122.112L86.7,156.075c-23.296,16.299-38.571,36.096-42.752,57.771
	c-0.853,4.036-1.28,8.158-1.28,12.288c0,8.815,1.826,17.536,5.376,25.6c0.512,1.28,1.109,2.475,1.707,3.669
	c1.109-5.035,2.475-9.899,3.925-14.592c8.875-13.73,20.531-25.446,34.219-34.389h0.085c15.59-10.487,32.486-18.893,50.261-25.003
	c7.885-2.935,15.915-5.47,24.064-7.595c25.148-6.502,50.927-10.274,76.885-11.264c0.367-0.068,0.734-0.102,1.109-0.085
	c5.205-0.256,10.411-0.341,15.701-0.341c67.669,0,128,16.981,167.083,43.605c3.746,2.517,7.364,5.222,10.837,8.107
	c13.03,9.916,23.356,22.946,30.037,37.888c3.55-8.064,5.376-16.785,5.376-25.6C469.334,199.765,452.865,175.445,425.302,156.075z"/>
<path style="fill:#2296F3;" d="M433.921,213.845c-3.473-2.884-7.091-5.589-10.837-8.107
	c-39.083-26.624-99.413-43.605-167.083-43.605c-5.291,0-10.496,0.085-15.701,0.341c-0.375-0.017-0.742,0.017-1.109,0.085
	c-25.958,0.99-51.738,4.762-76.885,11.264c-8.149,2.125-16.179,4.659-24.064,7.595c-17.775,6.11-34.671,14.515-50.261,25.003h-0.085
	c-13.687,8.943-25.344,20.659-34.219,34.389c-1.451,4.693-2.816,9.557-3.925,14.592c-0.597-1.195-1.195-2.389-1.707-3.669
	c-3.55-8.064-5.376-16.785-5.376-25.6c0-4.13,0.427-8.252,1.28-12.288c4.181-21.675,19.456-41.472,42.752-57.771l7.509-33.963
	C108.972,55.731,167.86,8.516,235.862,8.533h6.144c68.002-0.017,126.891,47.198,141.653,113.579l7.509,33.877v0.085
	C414.38,172.373,429.74,192.171,433.921,213.845z"/>
<path style="fill:#283593;" d="M463.958,251.733c-5.265,12.066-13.065,22.861-22.869,31.659
	c-3.584-26.385-9.617-52.378-18.005-77.653C440.893,216.772,455.101,232.755,463.958,251.733z"/>
<g>
	<path style="fill:#4E342E;" d="M140.801,270.763v0.085c-0.341,0.512-0.597,1.024-0.939,1.536l-12.203,21.077
		c-2.816,4.096-5.376,8.533-7.936,13.141c-12.954,25.259-20.898,52.787-23.381,81.067c-0.341,2.987-0.597,5.973-0.683,9.045
		c-0.427,5.291-0.597,10.667-0.683,16.128v1.963c-0.051,16.29,1.468,32.555,4.523,48.555
		c-31.915-24.32-54.613-76.629-56.576-138.155c-0.171-3.072-0.256-6.229-0.256-9.387c-0.077-20.352,2.304-40.636,7.083-60.416
		c1.109-5.035,2.475-9.899,3.925-14.592c2.807-4.531,6.007-8.815,9.557-12.8c7.262-8.226,15.548-15.479,24.661-21.589h0.085
		c15.59-10.487,32.486-18.893,50.261-25.003c-1.758,12.382-2.645,24.875-2.645,37.376c0,3.157,0.085,6.315,0.256,9.387
		c0.316,10.121,1.254,20.207,2.816,30.208C139.265,262.571,139.948,266.667,140.801,270.763z"/>
	<path style="fill:#4E342E;" d="M240.3,162.475c-2.219,3.925-4.693,8.192-7.509,12.885l-12.203,21.077
		c-17.894,28.416-28.638,60.74-31.317,94.208c-0.853,8.192-1.28,16.64-1.365,25.173v1.963c-0.051,16.29,1.468,32.555,4.523,48.555
		c-11.102-8.772-20.48-19.541-27.648-31.744c-11.648-19.686-19.763-41.259-23.979-63.744v-0.085
		c-2.816-14.037-4.471-28.279-4.949-42.581c-0.171-3.072-0.256-6.229-0.256-9.387c0-12.501,0.887-24.994,2.645-37.376
		c7.885-2.935,15.915-5.47,24.064-7.595c12.809-3.354,25.796-5.948,38.912-7.765C214.17,164.147,227.218,162.953,240.3,162.475z"/>
</g>
<g>
	<path style="fill:#795548;" d="M138.668,258.389c-8.397,15.172-14.771,31.386-18.944,48.213
		c-12.954,25.259-20.898,52.787-23.381,81.067c-0.341,2.987-0.597,5.973-0.683,9.045C75.009,368.811,61.526,327.253,59.99,280.32
		c-0.171-3.072-0.256-6.229-0.256-9.387c-0.026-14.379,1.143-28.74,3.499-42.923c7.262-8.226,15.548-15.479,24.661-21.589h0.085
		c15.59-10.487,32.486-18.893,50.261-25.003c-1.758,12.382-2.645,24.875-2.645,37.376c0,3.157,0.085,6.315,0.256,9.387
		C136.167,238.302,137.106,248.388,138.668,258.389z"/>
	<path style="fill:#795548;" d="M162.305,296.192v1.963c-0.009,12.186,0.811,24.363,2.475,36.437
		c-11.648-19.686-19.763-41.259-23.979-63.744v-0.085c-2.816-14.037-4.471-28.279-4.949-42.581
		c-0.171-3.072-0.256-6.229-0.256-9.387c0-12.501,0.887-24.994,2.645-37.376c7.885-2.935,15.915-5.47,24.064-7.595
		c12.809-3.354,25.796-5.948,38.912-7.765l-6.229,10.752c-17.894,28.416-28.638,60.74-31.317,94.208
		C162.817,279.211,162.39,287.659,162.305,296.192z"/>
</g>
<path d="M255.608,512c-0.017,0-0.026,0-0.043,0c-37.12-0.009-73.293-10.479-104.678-30.276c-0.265-0.128-0.529-0.273-0.777-0.435
	c-25.259-16.205-46.848-38.34-62.421-64.026c-0.811-1.331-1.237-2.867-1.237-4.429l8.602-0.043l7.228-4.386
	c14.097,23.253,33.596,43.324,56.405,58.103c0.239,0.119,0.478,0.247,0.7,0.393c28.791,18.321,62.054,28.015,96.179,28.023
	c0.009,0,0.034,0,0.043,0c98.825,0.009,179.226-80.375,179.251-179.2c-0.034-8.269-0.529-16.614-1.476-24.781l-0.777-6.596
	c-3.482-25.617-9.421-51.226-17.621-75.921l16.196-5.376c8.525,25.694,14.711,52.335,18.364,79.189l0.785,6.699
	c1.024,8.841,1.562,17.835,1.596,26.761c-0.017,52.471-20.446,101.769-57.532,138.837C357.317,491.588,308.029,512,255.608,512z"/>
<polygon points="87.98,214.955 87.894,214.955 87.894,197.888 "/>
<path d="M463.967,260.267c-3.217,0-6.289-1.818-7.74-4.924c-8.175-17.519-21.188-32.171-37.632-42.351
	c-39.62-26.974-98.765-42.325-162.594-42.325c-30.959,0.188-61.687,3.738-91.563,11.418c-25.634,6.4-49.758,16.973-71.765,31.462
	c-0.247,0.162-0.503,0.307-0.759,0.444c-12.476,8.277-22.929,18.859-31.07,31.454c-2.551,3.959-7.834,5.094-11.802,2.534
	c-3.959-2.56-5.094-7.842-2.534-11.802c9.591-14.831,21.939-27.238,36.719-36.898c0.239-0.162,0.495-0.307,0.751-0.444
	c23.433-15.309,49.084-26.513,76.262-33.289c31.232-8.038,63.275-11.887,95.795-11.947c67.14,0,129.792,16.435,171.853,45.082
	c18.97,11.733,34.227,28.902,43.81,49.442c1.988,4.267,0.154,9.344-4.122,11.341C466.399,260.011,465.178,260.267,463.967,260.267z"
	/>
<path d="M49.759,263.936c-3.14,0-6.153-1.732-7.646-4.727c-0.7-1.399-1.391-2.807-1.988-4.301c-3.942-8.951-5.99-18.722-5.99-28.774
	c0-28.553,16.486-55.194,47.667-77.039c9.148-6.434,18.927-12.134,29.065-16.939c15.761-7.424,32.282-13.406,49.118-17.783
	c4.574-1.195,9.225,1.553,10.411,6.11c1.186,4.565-1.553,9.225-6.11,10.411c-15.821,4.113-31.334,9.737-46.123,16.7
	c-9.242,4.378-18.176,9.583-26.547,15.471c-18.449,12.911-40.414,34.338-40.414,63.07c0,7.68,1.562,15.13,4.659,22.161
	c0.538,1.323,1.041,2.313,1.527,3.302c2.099,4.215,0.384,9.344-3.831,11.443C52.336,263.646,51.039,263.936,49.759,263.936z"/>
<path d="M441.097,291.925c-2.33,0-4.668-0.956-6.349-2.833c-3.149-3.507-2.859-8.909,0.649-12.049
	c8.823-7.919,16-17.852,20.745-28.723c3.106-7.057,4.676-14.507,4.668-22.178c0-29.73-24.721-58.522-67.823-79.002
	c-14.481-6.741-29.73-12.22-45.261-16.256c-4.557-1.186-7.287-5.845-6.11-10.411c1.186-4.565,5.897-7.287,10.411-6.11
	c16.521,4.301,32.742,10.138,48.213,17.331c49.357,23.45,77.628,57.865,77.628,94.438c0.009,10.052-2.039,19.823-6.101,29.039
	c-5.7,13.073-14.345,25.037-24.977,34.569C445.159,291.209,443.128,291.925,441.097,291.925z"/>
<path d="M416.965,157.918l-7.509-33.963C395.47,61.022,340.66,17.067,276.174,17.067c-0.009,0-0.017,0-0.034,0h-40.277
	c-0.009,0-0.026,0-0.034,0c-64.486,0-119.287,43.947-133.291,106.897l-7.501,33.954l-16.666-3.686l7.509-33.963
	C101.633,49.442,163.286,0,235.828,0c0.009,0,0.026,0,0.034,0h40.277c0.009,0,0.034,0,0.043,0
	c72.542,0,134.195,49.442,149.939,120.26l7.509,33.971L416.965,157.918z"/>
<polygon points="154.796,482.645 154.71,482.645 154.71,465.579 "/>
<path d="M99.5,471.893c-1.826,0-3.652-0.58-5.171-1.749c-34.97-26.641-57.941-82.074-59.93-144.657
	c-0.171-3.038-0.265-6.357-0.265-9.668c-0.077-20.975,2.389-41.993,7.322-62.413c0.998-4.548,2.304-9.404,4.07-15.113l16.307,5.043
	c-1.621,5.239-2.816,9.66-3.746,13.901c-4.659,19.268-6.955,38.903-6.886,58.547c0,3.029,0.085,6.033,0.247,8.951
	c1.451,45.474,15.087,87.612,36.079,114.569c-0.742-8.158-1.101-16.35-1.075-24.516v-1.946c0.085-9.173,0.563-17.911,1.408-26.061
	c2.756-34.492,14.037-68.412,32.58-97.877l12.041-20.804c0-0.009,0.469-0.777,0.478-0.785c0.239-0.41,0.486-0.828,0.759-1.237
	l7.023,4.719l8.593-0.034v0.085c0,1.69-0.503,3.354-1.451,4.762c-0.418,0.708-0.666,1.126-0.939,1.536l-11.904,20.591
	c-17.246,27.409-27.631,58.65-30.199,90.615c-0.811,7.817-1.246,16.017-1.331,24.576v1.886c-0.051,15.727,1.425,31.505,4.369,46.95
	c0.666,3.473-0.887,6.989-3.891,8.858C102.614,471.467,101.053,471.893,99.5,471.893z"/>
<path d="M192.428,374.869c-1.826,0-3.644-0.58-5.163-1.741c-25.967-19.746-45.961-56.414-54.827-100.591
	c-0.034-0.179-0.06-0.358-0.085-0.538c-2.85-14.336-4.54-28.979-5.018-43.537c-0.171-3.038-0.265-6.357-0.265-9.668
	c0-12.834,0.913-25.813,2.731-38.579l16.896,2.398c-1.698,11.964-2.56,24.141-2.56,36.181c0,2.995,0.085,5.999,0.247,8.909
	c0.461,13.961,2.074,27.819,4.796,41.387c0.034,0.171,0.06,0.341,0.085,0.512c5.914,29.175,16.896,54.519,31.198,72.764
	c-0.742-8.183-1.109-16.401-1.084-24.61v-1.937c0.094-9.233,0.572-17.971,1.417-26.061c2.756-34.492,14.037-68.412,32.58-97.869
	l12.041-20.804c2.842-4.736,5.282-8.934,7.467-12.8l14.857,8.388c-2.253,3.985-4.762,8.32-7.62,13.082l-12.134,20.966
	c-17.246,27.409-27.631,58.65-30.199,90.615c-0.802,7.757-1.246,15.966-1.34,24.585v1.877c-0.043,15.753,1.425,31.531,4.378,46.95
	c0.666,3.465-0.887,6.989-3.891,8.849C195.542,374.443,193.989,374.869,192.428,374.869z"/>
<path d="M315.077,452.267c-4.719,0-8.533-3.814-8.533-8.533c0-18.5-23.142-34.133-50.543-34.133
	c-27.392,0-50.543,15.633-50.543,34.133c0,4.719-3.823,8.533-8.533,8.533c-4.71,0-8.533-3.814-8.533-8.533
	c0-28.237,30.327-51.2,67.61-51.2c37.282,0,67.61,22.963,67.61,51.2C323.61,448.452,319.796,452.267,315.077,452.267z"/>
<path d="M363.453,321.468c-3.191,0-6.246-1.801-7.714-4.864c-0.58-1.195-14.148-27.435-53.282-26.428
	c-4.813,0.239-8.661-3.533-8.806-8.243c-0.162-4.719,3.533-8.661,8.243-8.806c51.319-1.954,68.557,34.645,69.282,36.19
	c1.997,4.267,0.162,9.353-4.105,11.341C365.893,321.212,364.664,321.468,363.453,321.468z"/>
<path d="M312.509,358.409c-9.643,0-19.183-4.659-28.407-13.884c-3.337-3.337-3.337-8.73,0-12.066s8.73-3.337,12.066,0
	c6.34,6.332,12.288,9.327,17.519,8.823c7.177-0.64,12.006-7.518,12.058-7.586c2.662-3.849,7.962-4.864,11.836-2.236
	s4.924,7.859,2.321,11.759c-0.922,1.382-9.438,13.551-24.422,15.036C314.488,358.357,313.49,358.409,312.509,358.409z"/>
<g>
</g>
<g>
</g>
<g>
</g>
<g>
</g>
<g>
</g>
<g>
</g>
<g>
</g>
<g>
</g>
<g>
</g>
<g>
</g>
<g>
</g>
<g>
</g>
<g>
</g>
<g>
</g>
<g>
</g>
</svg>
