<?xml version="1.0" encoding="iso-8859-1"?>
<!-- Generator: Adobe Illustrator 19.0.0, SVG Export Plug-In . SVG Version: 6.00 Build 0)  -->
<svg version="1.1" id="Capa_1" xmlns="http://www.w3.org/2000/svg" xmlns:xlink="http://www.w3.org/1999/xlink" x="0px" y="0px"
	 viewBox="0 0 512.001 512.001" style="enable-background:new 0 0 512.001 512.001;" xml:space="preserve">
<path style="fill:#FFC477;" d="M289.261,327.989h-66.519l-97.828,43.678c-21.305,9.512-35.025,30.662-35.025,53.995v64.774
	c0,11.91,9.655,21.565,21.565,21.565h289.095c11.91,0,21.565-9.655,21.565-21.565v-64.775c0-23.332-13.72-44.482-35.025-53.995
	L289.261,327.989z"/>
<path style="fill:#FFA733;" d="M317.34,340.525l-28.078-12.536h-66.52l-28.078,12.536c11.716,24.065,34.785,40.439,61.338,40.439
	C282.555,380.964,305.624,364.59,317.34,340.525z"/>
<path style="fill:#57565C;" d="M387.089,371.667l-51.01-22.774c-10.994,33.728-42.68,58.11-80.078,58.11
	s-69.084-24.381-80.078-58.11l-51.01,22.774c-21.305,9.513-35.025,30.662-35.025,53.995v64.774c0,11.91,9.655,21.565,21.565,21.565
	h289.095c11.91,0,21.566-9.655,21.566-21.565v-64.775C422.115,402.329,408.395,381.178,387.089,371.667z"/>
<path style="fill:#3E3D42;" d="M153.561,358.877l-28.646,12.79c-21.305,9.513-35.025,30.662-35.025,53.995v64.774
	c0,11.91,9.655,21.566,21.565,21.566h140.47C153.884,471.36,153.561,358.877,153.561,358.877z"/>
<path style="fill:#FFFFFF;" d="M361.575,473.277h-61.762c-10.081,0-18.33-8.249-18.33-18.33l0,0c0-10.081,8.249-18.33,18.33-18.33
	h61.762c10.081,0,18.33,8.249,18.33,18.33l0,0C379.905,465.028,371.656,473.277,361.575,473.277z"/>
<circle style="fill:#FFB655;" cx="132.226" cy="236.375" r="32.632"/>
<circle style="fill:#FFC477;" cx="379.778" cy="236.375" r="32.632"/>
<path style="fill:#FFDAAA;" d="M256.002,0C179.333,0,117.18,62.153,117.18,138.822c0,40.282,10.457,87.688,18.805,119.112
	c5.799,21.83,19.647,40.645,38.781,52.646l56.844,35.657c14.916,9.356,33.868,9.356,48.784,0l56.844-35.657
	c19.135-12.003,32.982-30.817,38.781-52.646c8.348-31.424,18.805-78.829,18.805-119.112C394.824,62.153,332.671,0,256.002,0z"/>
<path style="fill:#FFC477;" d="M238.032,310.58c-19.134-12.003-32.982-30.817-38.781-52.646
	c-8.348-31.424-18.805-78.829-18.805-119.112c0-65.787,45.763-120.882,107.189-135.199C277.474,1.256,266.885,0,256.002,0
	C179.333,0,117.18,62.153,117.18,138.822c0,40.282,10.457,87.688,18.805,119.112c5.799,21.83,19.647,40.645,38.781,52.646
	l56.844,35.657c14.916,9.356,33.868,9.356,48.783,0l7.241-4.542L238.032,310.58z"/>
<path style="fill:#C0AB91;" d="M256.002,0C179.333,0,117.18,62.153,117.18,138.822c0,19.926,2.56,41.593,6.157,62.207
	c0.005-0.089,6.012-111.052,98.095-134.601c7.726-1.976,15.936-0.309,22.425,4.328c2.474,1.768,5.019,3.602,7.137,5.131
	c2.99,2.16,7.028,2.16,10.017,0c2.117-1.53,4.663-3.364,7.136-5.131c6.489-4.637,14.699-6.304,22.425-4.328
	c92.083,23.549,98.091,134.513,98.095,134.601c3.596-20.615,6.157-42.282,6.157-62.207C394.824,62.153,332.671,0,256.002,0z"/>
<path style="fill:#A78966;" d="M287.635,3.623C277.474,1.256,266.885,0,256.002,0C179.333,0,117.18,62.153,117.18,138.822
	c0,19.926,2.56,41.593,6.157,62.207c0.004-0.079,4.828-88.959,71.85-124.51C213.439,40.241,247.128,13.064,287.635,3.623z"/>
<g>
	<path style="fill:#3E3D42;" d="M276.558,290.756c-11.888-9.882-29.202-9.853-41.112,0c-3.287,2.721-8.158,2.26-10.879-1.028
		c-2.72-3.288-2.259-8.158,1.029-10.879c17.618-14.574,43.193-14.574,60.811,0c3.288,2.72,3.749,7.59,1.029,10.879
		C285.908,291.574,280.462,294,276.558,290.756z"/>
	<path style="fill:#3E3D42;" d="M155.569,207.563h-32.754c-4.249,0-7.726-3.477-7.726-7.726l0,0c0-4.249,3.477-7.726,7.726-7.726
		h32.754c4.249,0,7.726,3.477,7.726,7.726l0,0C163.295,204.086,159.818,207.563,155.569,207.563z"/>
	<path style="fill:#3E3D42;" d="M387.098,207.563h-32.754c-4.25,0-7.726-3.477-7.726-7.726l0,0c0-4.249,3.477-7.726,7.726-7.726
		h32.754c4.25,0,7.726,3.477,7.726,7.726l0,0C394.824,204.086,391.347,207.563,387.098,207.563z"/>
	<path style="fill:#3E3D42;" d="M296.988,216.111h-15.453c0-14.079-11.454-25.533-25.533-25.533
		c-14.079,0-25.533,11.455-25.533,25.533h-15.453c0-22.6,18.387-40.986,40.986-40.986
		C278.601,175.126,296.988,193.511,296.988,216.111z"/>
</g>
<g>
	<path style="fill:#57565C;" d="M181.724,165.86c22.911-3.699,59.023,9.526,62.724,32.436c3.699,22.911-26.415,46.831-49.325,50.53
		c-22.911,3.699-44.483-11.874-48.183-34.785C143.239,191.132,158.814,169.56,181.724,165.86z"/>
	<path style="fill:#57565C;" d="M330.28,165.86c-22.911-3.699-59.023,9.526-62.724,32.436c-3.699,22.911,26.415,46.831,49.325,50.53
		c22.911,3.699,44.483-11.874,48.183-34.785S353.19,169.56,330.28,165.86z"/>
</g>
<path style="fill:#2D2D30;" d="M382.189,232.994c-2.062,9.012-4.176,17.435-6.17,24.94c-5.328,20.059-17.467,37.556-34.244,49.577
	l-0.016,0.031c0,0-0.082,16.509,0,16.272c61.701-29.624,40.434-90.825,40.434-90.825L382.189,232.994z"/>
<circle style="fill:#57565C;" cx="334.718" cy="320.922" r="15.453"/>
<g>
	<path style="fill:#ACABB1;" d="M239.802,187.274c-6.24-8.873-17.624-15.439-29.771-18.998l-63.372,34.432
		c-0.408,3.689-0.341,7.491,0.279,11.334c1.169,7.243,4.13,13.751,8.35,19.15L239.802,187.274z"/>
	<path style="fill:#ACABB1;" d="M365.065,214.043c1.654-10.247-0.555-20.221-5.543-28.455l-79.369,43.124
		c8.413,8.606,19.767,15.448,30.425,18.641l53.593-29.119C364.534,216.869,364.834,215.47,365.065,214.043z"/>
</g>
<g>
</g>
<g>
</g>
<g>
</g>
<g>
</g>
<g>
</g>
<g>
</g>
<g>
</g>
<g>
</g>
<g>
</g>
<g>
</g>
<g>
</g>
<g>
</g>
<g>
</g>
<g>
</g>
<g>
</g>
</svg>
